<svg xmlns="http://www.w3.org/2000/svg" width="64" height="64" viewBox="0 0 100 115">
  <!-- Antenna + pompom -->
  <line x1="50" y1="19" x2="50" y2="30" stroke="#c0a888" stroke-width="2" stroke-linecap="round"/>
  <circle cx="50" cy="11" r="10" fill="#cc2020"/>
  <circle cx="46" cy="8.5" r="3.5" fill="#ee5555" opacity="0.6"/>
  <!-- Wings -->
  <path d="M 21 62 Q 5 46 10 28 Q 16 42 22 54 Z" fill="#7a3265"/>
  <path d="M 21 66 Q 2 56 9 42 Q 16 52 22 60 Z" fill="#6a2858" opacity="0.92"/>
  <path d="M 79 62 Q 95 46 90 28 Q 84 42 78 54 Z" fill="#7a3265"/>
  <path d="M 79 66 Q 98 56 91 42 Q 84 52 78 60 Z" fill="#6a2858" opacity="0.92"/>
  <!-- Ears -->
  <ellipse cx="33" cy="33" rx="7" ry="6" fill="#f0ddd0"/>
  <ellipse cx="67" cy="33" rx="7" ry="6" fill="#f0ddd0"/>
  <ellipse cx="33" cy="33" rx="3.8" ry="3.2" fill="#f0b8b0"/>
  <ellipse cx="67" cy="33" rx="3.8" ry="3.2" fill="#f0b8b0"/>
  <!-- Body -->
  <ellipse cx="50" cy="65" rx="30" ry="34" fill="#f2e2d4"/>
  <ellipse cx="50" cy="72" rx="18" ry="16" fill="#ecddd0"/>
  <!-- Arms -->
  <ellipse cx="23" cy="74" rx="7" ry="9" fill="#ecd8c8" transform="rotate(-18 23 74)"/>
  <ellipse cx="77" cy="74" rx="7" ry="9" fill="#ecd8c8" transform="rotate(18 77 74)"/>
  <!-- Feet -->
  <ellipse cx="40" cy="97" rx="10" ry="6" fill="#d8c4a8"/>
  <ellipse cx="60" cy="97" rx="10" ry="6" fill="#d8c4a8"/>
  <!-- Eyes -->
  <circle cx="38" cy="56" r="8" fill="white"/>
  <circle cx="62" cy="56" r="8" fill="white"/>
  <circle cx="38" cy="56" r="5.5" fill="#cc2828"/>
  <circle cx="62" cy="56" r="5.5" fill="#cc2828"/>
  <circle cx="38" cy="56" r="2.8" fill="#1a0808"/>
  <circle cx="62" cy="56" r="2.8" fill="#1a0808"/>
  <circle cx="35" cy="53" r="2" fill="white"/>
  <circle cx="59" cy="53" r="2" fill="white"/>
  <!-- Nose -->
  <ellipse cx="50" cy="64" rx="4" ry="2.8" fill="#e87090"/>
  <!-- Mouth -->
  <path d="M 42 70 Q 50 78 58 70 L 58 69 Q 50 76 42 69 Z" fill="#7a2828"/>
  <rect x="46" y="69" width="3.2" height="4" rx="0.8" fill="white"/>
  <rect x="50.5" y="69" width="3.2" height="4" rx="0.8" fill="white"/>
</svg>
